<svg width="1024" height="1024" viewBox="0 0 1024 1024" fill="none" xmlns="http://www.w3.org/2000/svg">
<path d="M245.9 873.5V157C245.9 130.6 267.5 109 293.9 109H807.3C833.7 109 855.3 130.6 855.3 157V873.5C855.3 899.9 833.7 921.5 807.3 921.5H293.9C267.5 921.5 245.9 899.9 245.9 873.5Z" fill="#4E98A0"/>
<path d="M247.6 867.2V163C247.6 156.4 253 151 259.6 151H797.5C804.1 151 809.5 156.4 809.5 163V867.2C809.5 873.8 804.1 879.2 797.5 879.2H259.6C253 879.2 247.6 873.8 247.6 867.2Z" fill="#B9D5EA"/>
<path d="M797.5 889.2H259.6C247.5 889.2 237.6 879.3 237.6 867.2V163C237.6 150.9 247.5 141 259.6 141H797.5C809.6 141 819.5 150.9 819.5 163V867.2C819.5 879.3 809.7 889.2 797.5 889.2ZM259.6 161C258.5 161 257.6 161.9 257.6 163V867.2C257.6 868.3 258.5 869.2 259.6 869.2H797.5C798.6 869.2 799.5 868.3 799.5 867.2V163C799.5 161.9 798.6 161 797.5 161H259.6Z" fill="#322E63"/>
<path d="M807.2 931.5H293.9C261.9 931.5 235.9 905.5 235.9 873.5V157C235.9 125 261.9 99 293.9 99H807.3C839.3 99 865.3 125 865.3 157V873.5C865.2 905.5 839.2 931.5 807.2 931.5ZM293.9 119C272.9 119 255.9 136 255.9 157V873.5C255.9 894.5 272.9 911.5 293.9 911.5H807.3C828.3 911.5 845.3 894.5 845.3 873.5V157C845.3 136 828.3 119 807.3 119H293.9Z" fill="#322E63"/>
<path d="M167.8 873.5V157C167.8 130.6 189.4 109 215.8 109H708.5C734.9 109 756.5 130.6 756.5 157V873.5C756.5 899.9 734.9 921.5 708.5 921.5H215.8C189.4 921.5 167.8 899.9 167.8 873.5Z" fill="#4E98A0"/>
<path d="M167.8 873.5V157C167.8 130.6 189.4 109 215.8 109H669C695.4 109 717 130.6 717 157V873.5C717 899.9 695.4 921.5 669 921.5H215.8C189.4 921.5 167.8 899.9 167.8 873.5Z" fill="#76C49A"/>
<path d="M708.6 931.5H215.8C183.8 931.5 157.8 905.5 157.8 873.5V157C157.8 125 183.8 99 215.8 99H708.5C740.5 99 766.5 125 766.5 157V873.5C766.6 905.5 740.6 931.5 708.6 931.5ZM215.8 119C194.8 119 177.8 136 177.8 157V873.5C177.8 894.5 194.8 911.5 215.8 911.5H708.5C729.5 911.5 746.5 894.5 746.5 873.5V157C746.5 136 729.5 119 708.5 119H215.8Z" fill="#322E63"/>
<path d="M411.2 341.1L338.5 292.7L265.7 341.1V131.1H411.2V341.1Z" fill="#4E98A0"/>
<path d="M411.2 298.1L338.5 249.7L265.8 298.1V112.1C265.8 98.8 276.5 88.1 289.8 88.1H387.3C400.6 88.1 411.3 98.8 411.3 112.1V298.1H411.2Z" fill="#FEFEFE"/>
<path d="M411.2 290.1L338.5 239.9L265.8 290.1V143.9C265.8 130.2 276.5 119 289.8 119H387.3C400.6 119 411.3 130.1 411.3 143.9V290.1H411.2Z" fill="#CCCCCC"/>
<path d="M411.2 308.1C409.3 308.1 407.3 307.5 405.7 306.4L338.5 261.7L271.3 306.4C268.2 308.4 264.3 308.6 261 306.9C257.7 305.2 255.7 301.8 255.7 298.1V112.1C255.7 93.4 271 78.1 289.7 78.1H387.2C405.9 78.1 421.2 93.4 421.2 112.1V298.1C421.2 301.8 419.2 305.2 415.9 306.9C414.5 307.7 412.9 308.1 411.2 308.1ZM289.7 98.1C282 98.1 275.7 104.4 275.7 112.1V279.4L332.9 241.3C336.3 239.1 340.6 239.1 344 241.3L401.2 279.4V112.1C401.2 104.4 394.9 98.1 387.2 98.1H289.7Z" fill="#322E63"/>
</svg>
