<svg width="1024" height="1024" viewBox="0 0 1024 1024" fill="none" xmlns="http://www.w3.org/2000/svg">
<path d="M167.8 870.2V198.5C167.8 172.1 189.4 150.5 215.8 150.5H807.2C833.6 150.5 855.2 172.1 855.2 198.5V870.2C855.2 896.6 833.6 918.2 807.2 918.2H215.8C189.4 918.2 167.8 896.6 167.8 870.2Z" fill="white"/>
<path d="M167.8 382V198.6C167.8 172.2 189.4 150.6 215.8 150.6H807.2C833.6 150.6 855.2 172.2 855.2 198.6V382H167.8Z" fill="#B9D5EA"/>
<path d="M501.287 526C474.076 526 452.016 503.941 452.016 476.729V473.454C452.016 473.184 452.016 472.909 452.015 472.63C451.973 460.361 460.432 450.2 469.408 441.835V441.835C487.596 424.886 515.657 424.438 534.377 440.798L536.053 442.263C545.339 450.379 550.707 460.657 550.461 472.987C550.458 473.144 550.457 473.3 550.457 473.454L550.5 474.347C551.861 502.461 529.434 526 501.287 526V526Z" fill="#B9D5EA"/>
<path d="M501.287 662C474.076 662 452.016 639.941 452.016 612.729V609.454C452.016 609.184 452.016 608.909 452.015 608.63C451.973 596.361 460.432 586.2 469.408 577.835V577.835C487.596 560.886 515.657 560.438 534.377 576.798L536.053 578.263C545.339 586.379 550.707 596.657 550.461 608.987C550.458 609.144 550.457 609.3 550.457 609.454L550.5 610.347C551.861 638.461 529.434 662 501.287 662V662Z" fill="#B9D5EA"/>
<path d="M622.287 662C595.076 662 573.016 639.941 573.016 612.729V609.454C573.016 609.184 573.016 608.909 573.015 608.63C572.973 596.361 581.432 586.2 590.408 577.835V577.835C608.596 560.886 636.657 560.438 655.377 576.798L657.053 578.263C666.339 586.379 671.707 596.657 671.461 608.987C671.458 609.144 671.457 609.3 671.457 609.454L671.5 610.347C672.861 638.461 650.434 662 622.287 662V662Z" fill="#B9D5EA"/>
<path d="M743.287 662C716.076 662 694.016 639.941 694.016 612.729V609.454C694.016 609.184 694.016 608.909 694.015 608.63C693.973 596.361 702.432 586.2 711.408 577.835V577.835C729.596 560.886 757.657 560.438 776.377 576.798L778.053 578.263C787.339 586.379 792.707 596.657 792.461 608.987C792.458 609.144 792.457 609.3 792.457 609.454L792.5 610.347C793.861 638.461 771.434 662 743.287 662V662Z" fill="#B9D5EA"/>
<path d="M622.287 526C595.076 526 573.016 503.941 573.016 476.729V473.454C573.016 473.184 573.016 472.909 573.015 472.63C572.973 460.361 581.432 450.2 590.408 441.835V441.835C608.596 424.886 636.657 424.438 655.377 440.798L657.053 442.263C666.339 450.379 671.707 460.657 671.461 472.987C671.458 473.144 671.457 473.3 671.457 473.454L671.5 474.347C672.861 502.461 650.434 526 622.287 526V526Z" fill="#B9D5EA"/>
<path d="M743.287 526C716.076 526 694.016 503.941 694.016 476.729V473.454C694.016 473.184 694.016 472.909 694.015 472.63C693.973 460.361 702.432 450.2 711.408 441.835V441.835C729.596 424.886 757.657 424.438 776.377 440.798L778.053 442.263C787.339 450.379 792.707 460.657 792.461 472.987C792.458 473.144 792.457 473.3 792.457 473.454L792.5 474.347C793.861 502.461 771.434 526 743.287 526V526Z" fill="#B9D5EA"/>
<path d="M259.287 798C232.076 798 210.016 775.941 210.016 748.729V745.454C210.016 745.184 210.016 744.909 210.015 744.63C209.973 732.361 218.432 722.2 227.408 713.835V713.835C245.596 696.886 273.657 696.438 292.377 712.798L294.053 714.263C303.339 722.379 308.707 732.657 308.461 744.987C308.458 745.144 308.457 745.3 308.457 745.454L308.5 746.347C309.861 774.461 287.434 798 259.287 798V798Z" fill="#B9D5EA"/>
<path d="M380.287 798C353.076 798 331.016 775.941 331.016 748.729V745.454C331.016 745.184 331.016 744.909 331.015 744.63C330.973 732.361 339.432 722.2 348.408 713.835V713.835C366.596 696.886 394.657 696.438 413.377 712.798L415.053 714.263C424.339 722.379 429.707 732.657 429.461 744.987C429.458 745.144 429.457 745.3 429.457 745.454L429.5 746.347C430.861 774.461 408.434 798 380.287 798V798Z" fill="#B9D5EA"/>
<path d="M501.287 798C474.076 798 452.016 775.941 452.016 748.729V745.454C452.016 745.184 452.016 744.909 452.015 744.63C451.973 732.361 460.432 722.2 469.408 713.835V713.835C487.596 696.886 515.657 696.438 534.377 712.798L536.053 714.263C545.339 722.379 550.707 732.657 550.461 744.987C550.458 745.144 550.457 745.3 550.457 745.454L550.5 746.347C551.861 774.461 529.434 798 501.287 798V798Z" fill="#B9D5EA"/>
<path d="M380.287 662C353.076 662 331.016 639.941 331.016 612.729V609.454C331.016 609.184 331.016 608.909 331.015 608.63C330.973 596.361 339.432 586.2 348.408 577.835V577.835C366.596 560.886 394.657 560.438 413.377 576.798L415.053 578.263C424.339 586.379 429.707 596.657 429.461 608.987C429.458 609.144 429.457 609.3 429.457 609.454L429.5 610.347C430.861 638.461 408.434 662 380.287 662V662Z" fill="#B9D5EA"/>
<path d="M259.287 662C232.076 662 210.016 639.941 210.016 612.729V609.454C210.016 609.184 210.016 608.909 210.015 608.63C209.973 596.361 218.432 586.2 227.408 577.835V577.835C245.596 560.886 273.657 560.438 292.377 576.798L294.053 578.263C303.339 586.379 308.707 596.657 308.461 608.987C308.458 609.144 308.457 609.3 308.457 609.454L308.5 610.347C309.861 638.461 287.434 662 259.287 662V662Z" fill="#B9D5EA"/>
<path d="M693.3 916.2L852.7 771.4L851.5 703.7L617 918.2L693.3 916.2Z" fill="#B9D5EA"/>
<path d="M167.8 382.4V199C167.8 172.6 189.4 151 215.8 151H807.2C833.6 151 855.2 172.6 855.2 199V382.4H167.8Z" fill="#B9D5EA"/>
<path d="M807.2 928.2H215.8C183.8 928.2 157.8 902.2 157.8 870.2V182.3C157.8 150.3 183.8 124.3 215.8 124.3H807.2C839.2 124.3 865.2 150.3 865.2 182.3V870.2C865.2 902.2 839.2 928.2 807.2 928.2ZM215.8 144.3C194.8 144.3 177.8 161.3 177.8 182.3V870.2C177.8 891.2 194.8 908.2 215.8 908.2H807.2C828.2 908.2 845.2 891.2 845.2 870.2V182.3C845.2 161.3 828.2 144.3 807.2 144.3H215.8Z" fill="#322E63"/>
<path d="M807.2 928.2H215.8C183.8 928.2 157.8 902.2 157.8 870.2V182.3C157.8 150.3 183.8 124.3 215.8 124.3H807.2C839.2 124.3 865.2 150.3 865.2 182.3V870.2C865.2 902.2 839.2 928.2 807.2 928.2ZM215.8 144.3C194.8 144.3 177.8 161.3 177.8 182.3V870.2C177.8 891.2 194.8 908.2 215.8 908.2H807.2C828.2 908.2 845.2 891.2 845.2 870.2V182.3C845.2 161.3 828.2 144.3 807.2 144.3H215.8Z" fill="#322E63"/>
<path d="M167.8 321.2V182.4C167.8 156 189.4 134.4 215.8 134.4H807.2C833.6 134.4 855.2 156 855.2 182.4V321.2H167.8Z" fill="#EA4468"/>
<path d="M167.8 321.2V182.4C167.8 156 189.4 134.4 215.8 134.4H807.2C833.6 134.4 855.2 156 855.2 182.4V321.2H167.8Z" fill="#FF525F"/>
<path d="M167.8 321.2V219.4C167.8 193 189.4 171.4 215.8 171.4H807.2C833.6 171.4 855.2 193 855.2 219.4V321.2H167.8Z" fill="#EA4468"/>
<path d="M167.8 321.2V219.4C167.8 193 189.4 171.4 215.8 171.4H807.2C833.6 171.4 855.2 193 855.2 219.4V321.2H167.8Z" fill="#EA4468"/>
<path d="M277.7 134.3H323.7V237.6H277.7V134.3ZM418.6 134.3H464.6V237.6H418.6V134.3ZM559.8 134.3H605.8V237.6H559.8V134.3ZM700.1 134.3H746.1V237.6H700.1V134.3Z" fill="#EA4468"/>
<path d="M865.2 331.2H157.8V182.4C157.8 150.4 183.8 124.4 215.8 124.4H807.2C839.2 124.4 865.2 150.4 865.2 182.4V331.2ZM177.8 311.2H845.2V182.4C845.2 161.4 828.2 144.4 807.2 144.4H215.8C194.8 144.4 177.8 161.4 177.8 182.4V311.2Z" fill="#322E63"/>
<path d="M300.9 223C295.4 223 290.9 218.5 290.9 213V88.1C290.9 82.6 295.4 78.1 300.9 78.1C306.4 78.1 310.9 82.6 310.9 88.1V213C310.9 218.5 306.4 223 300.9 223Z" fill="#322E63"/>
<path d="M441.6 223C436.1 223 431.6 218.5 431.6 213V88.1C431.6 82.6 436.1 78.1 441.6 78.1C447.1 78.1 451.6 82.6 451.6 88.1V213C451.6 218.5 447.1 223 441.6 223Z" fill="#322E63"/>
<path d="M582.4 223C576.9 223 572.4 218.5 572.4 213V88.1C572.4 82.6 576.9 78.1 582.4 78.1C587.9 78.1 592.4 82.6 592.4 88.1V213C592.4 218.5 587.9 223 582.4 223Z" fill="#322E63"/>
<path d="M723.1 223C717.6 223 713.1 218.5 713.1 213V88.1C713.1 82.6 717.6 78.1 723.1 78.1C728.6 78.1 733.1 82.6 733.1 88.1V213C733.1 218.5 728.6 223 723.1 223Z" fill="#322E63"/>
</svg>
