<svg width="1448" height="1448" viewBox="0 0 1448 1448" fill="none" xmlns="http://www.w3.org/2000/svg">
<g clip-path="url(#clip0_3_2)">
<path d="M501.338 1022.43L502.872 342.478C502.929 317.425 521.339 296.968 543.784 297.019L980.276 298.004C1002.72 298.054 1021.04 318.594 1020.98 343.647L1019.45 1023.6C1019.39 1048.65 1000.98 1069.11 978.536 1069.06L542.045 1068.07C519.599 1068.02 501.281 1047.48 501.338 1022.43Z" fill="#B4B150"/>
<path d="M502.797 1016.45L504.305 348.175C504.319 341.912 508.921 336.798 514.533 336.811L971.854 337.842C977.465 337.855 982.045 342.99 982.031 349.253L980.523 1017.53C980.509 1023.8 975.906 1028.91 970.295 1028.9L512.973 1027.87C507.362 1027.85 502.783 1022.72 502.797 1016.45Z" fill="#B9D5EA"/>
<path d="M970.273 1038.39L512.952 1037.36C502.665 1037.33 494.269 1027.92 494.295 1016.44L495.803 348.156C495.828 336.674 504.267 327.297 514.554 327.321L971.875 328.353C982.163 328.376 990.559 337.79 990.533 349.273L989.025 1017.55C988.999 1029.03 980.646 1038.41 970.273 1038.39ZM514.511 346.301C513.576 346.298 512.809 347.151 512.806 348.195L511.299 1016.47C511.296 1017.52 512.06 1018.37 512.995 1018.38L970.316 1019.41C971.251 1019.41 972.018 1018.56 972.021 1017.51L973.529 349.234C973.531 348.19 972.768 347.334 971.833 347.332L514.511 346.301Z" fill="#322E63"/>
<path d="M978.43 1078.55L542.023 1077.56C514.817 1077.5 492.767 1052.78 492.836 1022.41L494.37 342.459C494.439 312.091 516.599 287.468 543.806 287.529L980.297 288.514C1007.5 288.575 1029.55 313.299 1029.48 343.667L1027.95 1023.62C1027.8 1053.99 1005.64 1078.61 978.43 1078.55ZM543.763 306.509C525.909 306.468 511.419 322.569 511.374 342.497L509.84 1022.45C509.795 1042.38 524.212 1058.54 542.066 1058.58L978.558 1059.57C996.412 1059.61 1010.9 1043.51 1010.95 1023.58L1012.48 343.628C1012.53 323.699 998.109 307.534 980.254 307.494L543.763 306.509Z" fill="#322E63"/>
<path d="M434.937 1022.28L436.472 342.328C436.528 317.275 454.939 296.818 477.384 296.869L896.276 297.814C918.722 297.865 937.04 318.404 936.983 343.458L935.449 1023.41C935.392 1048.46 916.982 1068.92 894.537 1068.87L475.644 1067.92C453.199 1067.87 434.881 1047.33 434.937 1022.28Z" fill="#B4B150"/>
<path d="M434.937 1022.28L436.472 342.328C436.528 317.275 454.939 296.818 477.384 296.869L862.693 297.738C885.139 297.789 903.457 318.329 903.4 343.382L901.866 1023.33C901.809 1048.39 883.399 1068.84 860.954 1068.79L475.644 1067.92C453.199 1067.87 434.881 1047.33 434.937 1022.28Z" fill="#DFDB61"/>
<path d="M894.6 1078.36L475.623 1077.41C448.416 1077.35 426.367 1052.63 426.435 1022.26L427.97 342.309C428.038 311.942 450.199 287.318 477.405 287.379L896.298 288.324C923.504 288.386 945.553 313.109 945.485 343.477L943.951 1023.43C943.967 1053.8 921.806 1078.42 894.6 1078.36ZM477.362 306.359C459.508 306.319 445.018 322.419 444.974 342.348L443.439 1022.3C443.394 1042.23 457.811 1058.39 475.665 1058.43L894.558 1059.38C912.412 1059.42 926.902 1043.32 926.947 1023.39L928.481 343.439C928.526 323.51 914.109 307.344 896.255 307.304L477.362 306.359Z" fill="#322E63"/>
<path d="M820.717 588.985L677.288 588.662C672.612 588.651 668.796 584.372 668.808 579.153C668.819 573.933 672.655 569.671 677.331 569.682L820.759 570.006C825.435 570.016 829.252 574.295 829.24 579.515C829.228 584.734 825.393 588.996 820.717 588.985Z" fill="#322E63"/>
<path d="M635.978 588.569L537.166 588.346C533.945 588.338 531.319 584.062 531.331 578.842C531.342 573.623 533.988 569.358 537.209 569.366L636.02 569.589C639.242 569.596 641.868 573.872 641.856 579.092C641.845 584.311 639.199 588.576 635.978 588.569Z" fill="#322E63"/>
<path d="M820.547 664.24L753.551 664.089C748.875 664.079 745.059 659.8 745.071 654.58C745.082 649.361 748.918 645.099 753.594 645.109L820.59 645.26C825.266 645.271 829.082 649.55 829.07 654.77C829.058 659.989 825.223 664.251 820.547 664.24Z" fill="#322E63"/>
<path d="M702.709 663.974L547.378 663.624C542.702 663.613 538.886 659.334 538.898 654.115C538.909 648.895 542.745 644.634 547.421 644.644L702.752 644.995C707.428 645.005 711.244 649.284 711.233 654.504C711.221 659.723 707.47 663.985 702.709 663.974Z" fill="#322E63"/>
<path d="M820.389 734.181L547.22 733.565C542.544 733.554 538.728 729.275 538.74 724.056C538.752 718.836 542.587 714.574 547.263 714.585L820.432 715.201C825.108 715.212 828.924 719.491 828.912 724.71C828.901 729.93 825.065 734.192 820.389 734.181Z" fill="#322E63"/>
<path d="M820.227 805.925L687.766 805.626C683.09 805.615 679.274 801.336 679.286 796.117C679.297 790.897 683.133 786.635 687.809 786.646L820.27 786.945C824.946 786.955 828.762 791.234 828.75 796.454C828.739 801.673 824.903 805.935 820.227 805.925Z" fill="#322E63"/>
<path d="M624.767 805.484L547.058 805.308C542.382 805.298 538.566 801.019 538.578 795.799C538.59 790.58 542.425 786.318 547.101 786.328L624.809 786.504C629.485 786.514 633.302 790.793 633.29 796.013C633.278 801.232 629.443 805.494 624.767 805.484Z" fill="#322E63"/>
</g>
<defs>
<clipPath id="clip0_3_2">
<rect width="1024" height="1024" fill="white" transform="translate(0.0577393 737.986) rotate(-46.1067)"/>
</clipPath>
</defs>
</svg>
