<svg width="1024" height="1024" viewBox="0 0 1024 1024" fill="none" xmlns="http://www.w3.org/2000/svg">
<path d="M820.148 175.995C840.265 175.995 859.559 183.987 873.784 198.212C888.008 212.437 896 231.73 896 251.847V644.153C896 664.27 888.008 683.563 873.784 697.788C859.559 712.013 840.265 720.005 820.148 720.005H203.852C183.735 720.005 164.441 712.013 150.216 697.788C135.992 683.563 128 664.27 128 644.153V251.847C128 231.73 135.992 212.437 150.216 198.212C164.441 183.987 183.735 175.995 203.852 175.995H820.148ZM776.154 320.019C773.397 316.846 770.042 314.248 766.28 312.372C762.519 310.497 758.424 309.381 754.231 309.088C750.038 308.796 745.828 309.333 741.843 310.668C737.857 312.004 734.174 314.111 731.003 316.871L580.229 448.019L486.59 354.664L484.523 352.768C478.609 347.826 471.11 345.184 463.405 345.327C455.699 345.47 448.303 348.388 442.577 353.545L260.532 517.518L258.56 519.452C253.092 525.309 250.02 533.003 249.95 541.015C249.88 549.027 252.817 556.774 258.181 562.726L260.115 564.698C265.971 570.16 273.661 573.229 281.668 573.3C289.676 573.37 297.419 570.436 303.369 565.077L462.848 421.395L556.146 514.408L558.175 516.286C570.121 526.298 587.757 526.298 599.742 515.906L773.006 365.151L775.016 363.255C786.451 351.46 787.134 332.648 776.154 320.019Z" fill="#0CCA8A"/>
</svg>
